<svg width="324" height="163" viewBox="0 0 324 163" fill="none" xmlns="http://www.w3.org/2000/svg">
<path d="M0 99.8878L1.19313 98.8725L1.71457 98.426L4.67529 94.7321L40.9817 6.96264C40.9817 5.79845 40.8049 4.86184 40.4514 4.16158C40.0979 3.46131 39.329 2.90985 38.1535 2.49845L36.2975 1.79818V0.922852H58.8344V1.79818L57.2435 2.49845C56.1211 2.90985 55.361 3.47882 54.9457 4.20534C54.5303 4.93187 54.327 5.88598 54.327 7.05017L18.0295 99.0125H311.839C314.022 99.0125 315.622 98.4873 316.656 97.4369C317.69 96.3865 318.671 94.8722 319.616 92.8852L323.063 85.5324H323.947L324 99.9229" fill="#F8F8F8"/>
<path d="M59.674 99.9229C56.2537 99.9229 53.3813 98.96 51.057 97.0343C48.7326 95.1085 47.566 92.3337 47.566 88.7186C47.566 85.9788 48.98 83.4491 51.8082 81.147C54.6363 78.8449 59.0818 77.103 65.1535 75.9388C66.0992 75.7637 67.1597 75.5711 68.3352 75.3698C69.5106 75.1685 70.748 74.9496 72.0471 74.7133V67.7982C72.0471 63.8329 71.5611 61.0406 70.5889 59.4388C69.6167 57.8369 68.0966 57.0316 66.0373 57.0316C64.6232 57.0316 63.5008 57.4868 62.6789 58.3884C61.857 59.29 61.3267 60.8568 61.0881 63.0714L60.9113 64.0343C60.7964 66.5465 60.1777 68.3847 59.0553 69.5488C57.9329 70.713 56.5542 71.2995 54.9015 71.2995C53.3725 71.2995 52.0998 70.8356 51.1011 69.899C50.1025 68.9624 49.5987 67.7106 49.5987 66.135C49.5987 63.7454 50.4383 61.7321 52.1175 60.0953C53.7967 58.4584 56.0239 57.2329 58.7902 56.4189C61.5565 55.6048 64.5614 55.1934 67.8049 55.1934C73.0458 55.1934 77.1025 56.4626 79.9571 59.0011C82.8118 61.5396 84.2435 65.6711 84.2435 71.387V90.7319C84.2435 93.3579 85.4808 94.6709 87.9555 94.6709H89.8998L90.6953 95.3711C89.5728 96.7717 88.3532 97.8483 87.0275 98.6099C85.7018 99.3714 83.8281 99.7478 81.4154 99.7478C78.8259 99.7478 76.7755 99.1526 75.273 97.9534C73.7705 96.7542 72.7807 95.1698 72.3123 93.1828C70.5447 95.0473 68.7329 96.6404 66.8769 97.9534C65.021 99.2663 62.617 99.9229 59.674 99.9229ZM65.0651 94.5833C66.2406 94.5833 67.3453 94.3032 68.3794 93.7518C69.4134 93.2003 70.6331 92.3337 72.0471 91.1695V76.464C71.455 76.5778 70.8717 76.7003 70.2795 76.8141C69.6874 76.9279 69.0157 77.0504 68.2468 77.1642C65.5336 77.8645 63.3682 79.0462 61.7509 80.7093C60.1336 82.3725 59.3205 84.6045 59.3205 87.4056C59.3205 89.7953 59.8772 91.5897 60.9997 92.7889C62.1221 93.9881 63.4743 94.5833 65.0651 94.5833Z" fill="#F8F8F8"/>
<path d="M100 157.262V156.386L101.768 155.774C103.774 155.135 104.773 153.471 104.773 150.784V105.967C104.773 104.803 104.64 103.866 104.375 103.166C104.11 102.466 103.42 101.879 102.298 101.415L100 100.365V99.4897H117.057L133.408 141.856L148.786 99.4897H166.196V100.365L164.782 100.89C163.66 101.302 162.9 101.871 162.484 102.597C162.069 103.324 161.866 104.278 161.866 105.442V151.222C161.866 152.386 162.016 153.296 162.308 153.935C162.599 154.574 163.306 155.135 164.429 155.598L166.196 156.386V157.262H144.19V156.386L146.046 155.598C147.168 155.135 147.875 154.574 148.167 153.935C148.459 153.296 148.609 152.386 148.609 151.222V131.527L148.786 106.492L130.314 157.262H125.895L106.628 107.105L106.894 128.901V150.959C106.894 152.246 107.088 153.279 107.468 154.067C107.848 154.854 108.599 155.423 109.722 155.774L111.666 156.386V157.262H100Z" fill="#F8F8F8"/>
<path d="M198.101 157.262C193.621 157.262 189.661 156.491 186.214 154.959C182.768 153.428 180.081 150.994 178.172 147.668C176.254 144.342 175.3 139.948 175.3 134.494V105.074C175.3 102.912 174.151 101.494 171.853 100.811L169.908 100.304V99.4547H194.39V100.304L191.827 100.987C189.644 101.503 188.556 102.921 188.556 105.249V136.718C188.556 142.005 189.705 145.917 192.003 148.438C194.301 150.968 197.598 152.237 201.902 152.237C206.206 152.237 209.927 150.898 212.552 148.228C215.176 145.558 216.484 141.777 216.484 136.884V105.591C216.484 104.453 216.29 103.446 215.91 102.562C215.521 101.678 214.743 101.1 213.568 100.811L211.358 100.304V99.4547H223.732V100.304L221.345 100.899C220.223 101.127 219.489 101.669 219.136 102.518C218.782 103.367 218.606 104.365 218.606 105.503V136.709C218.606 140.858 217.748 144.482 216.043 147.58C214.328 150.679 211.951 153.069 208.884 154.741C205.817 156.421 202.229 157.253 198.101 157.253V157.262Z" fill="#F8F8F8"/>
<path d="M244.678 157.262C241.434 157.262 238.137 156.876 234.779 156.115C231.421 155.345 228.619 154.338 226.383 153.086L226.825 141.488H227.709L230.448 147.029C231.27 148.622 232.154 150.031 233.1 151.248C234.046 152.474 235.336 153.419 236.989 154.102C238.164 154.671 239.304 155.056 240.391 155.257C241.478 155.458 242.707 155.555 244.059 155.555C247.656 155.555 250.493 154.618 252.588 152.745C254.682 150.872 255.725 148.456 255.725 145.497C255.725 142.714 255.018 140.534 253.604 138.976C252.19 137.418 249.918 135.895 246.799 134.415L243.175 132.884C238.111 130.722 234.143 128.236 231.288 125.426C228.433 122.616 227.002 118.878 227.002 114.213C227.002 110.86 227.903 107.963 229.697 105.512C231.491 103.07 234.001 101.197 237.209 99.8836C240.418 98.5793 244.174 97.9229 248.478 97.9229C251.598 97.9229 254.558 98.3167 257.36 99.1133C260.162 99.9099 262.592 100.987 264.651 102.352L264.121 112.585H263.237L259.614 106.186C258.615 104.199 257.608 102.79 256.609 101.967C255.61 101.144 254.461 100.558 253.162 100.216C252.393 99.9886 251.686 99.8311 251.041 99.7435C250.396 99.656 249.565 99.6122 248.566 99.6122C245.561 99.6122 243.025 100.453 240.966 102.124C238.906 103.805 237.872 106.063 237.872 108.9C237.872 111.736 238.668 114.116 240.259 115.85C241.849 117.583 244.174 119.132 247.241 120.498L251.306 122.205C256.962 124.594 261.028 127.133 263.502 129.837C265.977 132.542 267.214 136.017 267.214 140.28C267.214 145.287 265.252 149.357 261.337 152.517C257.422 155.668 251.863 157.253 244.678 157.253V157.262Z" fill="#F8F8F8"/>
<path d="M271.368 157.262V156.386L273.401 155.598C274.4 155.196 275.098 154.653 275.478 153.979C275.858 153.305 276.052 152.386 276.052 151.222V105.529C276.052 104.365 275.893 103.446 275.566 102.772C275.239 102.098 274.523 101.564 273.401 101.153L271.368 100.365V99.4897H313.702L314.232 112.97H313.349L309.548 104.742C309.018 103.691 308.461 102.842 307.869 102.203C307.277 101.564 306.393 101.24 305.218 101.24H289.309V126.537H298.766C299.941 126.537 300.843 126.231 301.462 125.618C302.08 125.006 302.628 124.174 303.097 123.124L304.864 119.622H305.748V135.378H304.864L303.097 131.702C302.566 130.651 302.009 129.82 301.417 129.207C300.825 128.594 299.941 128.288 298.766 128.288H289.309V155.511H307.162C308.337 155.511 309.257 155.205 309.902 154.592C310.547 153.979 311.077 153.121 311.493 152.01L315.116 143.781H316L315.47 157.262H271.368Z" fill="#F8F8F8"/>
</svg>
