<svg width="168" height="53" viewBox="0 0 168 53" fill="none" xmlns="http://www.w3.org/2000/svg">
<path d="M0 52.4816L0.618658 51.9483L0.889034 51.7138L2.42422 49.7736L21.2498 3.67241C21.2498 3.06092 21.1581 2.56897 20.9748 2.20115C20.7915 1.83333 20.3928 1.54368 19.7833 1.32759L18.8209 0.95977V0.5H30.5067V0.95977L29.6818 1.32759C29.0998 1.54368 28.7057 1.84253 28.4903 2.22414C28.275 2.60575 28.1696 3.1069 28.1696 3.71839L9.34861 52.0218H161.694C162.826 52.0218 163.656 51.746 164.192 51.1943C164.728 50.6425 165.237 49.8471 165.727 48.8035L167.514 44.9414H167.973L168 52.5" fill="white"/>
<path d="M30.9421 52.5C29.1686 52.5 27.6792 51.9943 26.474 50.9828C25.2687 49.9713 24.6638 48.5138 24.6638 46.6149C24.6638 45.1759 25.3971 43.8471 26.8635 42.6379C28.33 41.4287 30.635 40.5138 33.7833 39.9023C34.2737 39.8103 34.8236 39.7092 35.4331 39.6034C36.0426 39.4977 36.6841 39.3828 37.3578 39.2586V35.6264C37.3578 33.5437 37.1057 32.077 36.6016 31.2356C36.0975 30.3943 35.3093 29.9713 34.2416 29.9713C33.5084 29.9713 32.9264 30.2103 32.5002 30.6839C32.074 31.1575 31.799 31.9805 31.6753 33.1437L31.5836 33.6494C31.5241 34.969 31.2033 35.9345 30.6213 36.546C30.0393 37.1575 29.3244 37.4655 28.4674 37.4655C27.6746 37.4655 27.0147 37.2218 26.4969 36.7299C25.9791 36.2379 25.7178 35.5805 25.7178 34.7529C25.7178 33.4977 26.1532 32.4402 27.0239 31.5805C27.8946 30.7207 29.0494 30.077 30.4838 29.6494C31.9182 29.2218 33.4763 29.0057 35.1581 29.0057C37.8756 29.0057 39.9791 29.6724 41.4593 31.0057C42.9394 32.3391 43.6818 34.5092 43.6818 37.5115V47.6724C43.6818 49.0517 44.3234 49.7414 45.6065 49.7414H46.6147L47.0272 50.1092C46.4452 50.8448 45.8128 51.4104 45.1254 51.8103C44.438 52.2104 43.4664 52.408 42.2154 52.408C40.8727 52.408 39.8095 52.0954 39.0304 51.4655C38.2514 50.8356 37.7381 50.0034 37.4953 48.9598C36.5787 49.9391 35.6393 50.7759 34.6769 51.4655C33.7146 52.1552 32.4681 52.5 30.9421 52.5ZM33.7375 49.6954C34.347 49.6954 34.9198 49.5483 35.456 49.2586C35.9921 48.969 36.6246 48.5138 37.3578 47.9023V40.1782C37.0507 40.2379 36.7483 40.3023 36.4412 40.3621C36.1342 40.4218 35.7859 40.4862 35.3872 40.546C33.9804 40.9138 32.8576 41.5345 32.019 42.408C31.1804 43.2816 30.7588 44.454 30.7588 45.9253C30.7588 47.1805 31.0475 48.123 31.6295 48.7529C32.2115 49.3828 32.9126 49.6954 33.7375 49.6954Z" fill="white"/>
<path d="M55.2897 52.5V52.0402L56.2062 51.7184C57.2465 51.3828 57.7643 50.5092 57.7643 49.0977V25.5575C57.7643 24.946 57.6956 24.454 57.5581 24.0862C57.4206 23.7184 57.0632 23.4103 56.4812 23.1667L55.2897 22.6149V22.1552H64.1342L72.6121 44.408L80.5859 22.1552H89.6137V22.6149L88.8805 22.8908C88.2985 23.1069 87.9044 23.4057 87.689 23.7874C87.4737 24.169 87.3682 24.6701 87.3682 25.2816V49.3276C87.3682 49.9391 87.4462 50.4172 87.5974 50.7529C87.7486 51.0885 88.1152 51.3828 88.6972 51.6264L89.6137 52.0402V52.5H78.2029V52.0402L79.1653 51.6264C79.7473 51.3828 80.1139 51.0885 80.2651 50.7529C80.4164 50.4172 80.4943 49.9391 80.4943 49.3276V38.9828L80.5859 25.8333L71.0082 52.5H68.7169L58.7267 26.1552L58.8642 37.6034V49.1897C58.8642 49.8655 58.965 50.408 59.162 50.8218C59.3591 51.2356 59.7486 51.5345 60.3306 51.7184L61.3388 52.0402V52.5H55.2897Z" fill="white"/>
<path d="M106.157 52.5C103.834 52.5 101.781 52.0954 99.9935 51.2908C98.2062 50.4862 96.8131 49.208 95.8232 47.4609C94.8288 45.7138 94.3339 43.4057 94.3339 40.5414V25.0885C94.3339 23.9529 93.7381 23.208 92.5466 22.8494L91.5385 22.5828V22.1368H104.232V22.5828L102.903 22.9414C101.772 23.2126 101.208 23.9575 101.208 25.1805V41.7092C101.208 44.4862 101.804 46.5414 102.995 47.8655C104.187 49.1943 105.896 49.8609 108.128 49.8609C110.359 49.8609 112.289 49.1575 113.65 47.7552C115.011 46.3529 115.689 44.3667 115.689 41.7966V25.3598C115.689 24.7621 115.588 24.2333 115.391 23.769C115.19 23.3046 114.786 23.0012 114.177 22.8494L113.031 22.5828V22.1368H119.447V22.5828L118.21 22.8954C117.628 23.0149 117.247 23.3 117.064 23.746C116.881 24.192 116.789 24.7161 116.789 25.3138V41.7046C116.789 43.8839 116.344 45.7874 115.46 47.4149C114.571 49.0425 113.338 50.2977 111.748 51.1759C110.158 52.0586 108.297 52.4954 106.157 52.4954V52.5Z" fill="white"/>
<path d="M130.308 52.5C128.626 52.5 126.917 52.2977 125.175 51.8977C123.434 51.4931 121.981 50.9644 120.822 50.3069L121.051 44.2149H121.509L122.93 47.1253C123.356 47.9621 123.814 48.7023 124.304 49.3414C124.795 49.9851 125.464 50.4816 126.321 50.8402C126.93 51.1391 127.521 51.3414 128.085 51.4471C128.649 51.5529 129.286 51.6035 129.987 51.6035C131.852 51.6035 133.323 51.1115 134.409 50.1276C135.495 49.1437 136.036 47.8747 136.036 46.3207C136.036 44.8586 135.669 43.7138 134.936 42.8954C134.203 42.077 133.025 41.277 131.408 40.5L129.529 39.6954C126.903 38.5598 124.845 37.254 123.365 35.7782C121.885 34.3023 121.142 32.3391 121.142 29.8885C121.142 28.1276 121.61 26.6057 122.54 25.3184C123.47 24.0356 124.772 23.0517 126.435 22.3621C128.099 21.677 130.046 21.3322 132.278 21.3322C133.896 21.3322 135.431 21.5391 136.884 21.9575C138.337 22.3759 139.597 22.9414 140.665 23.6586L140.39 29.0333H139.931L138.052 25.6724C137.535 24.6287 137.012 23.8885 136.494 23.4563C135.976 23.0241 135.381 22.7161 134.707 22.5368C134.308 22.4172 133.942 22.3345 133.607 22.2885C133.273 22.2425 132.842 22.2195 132.324 22.2195C130.766 22.2195 129.451 22.6609 128.383 23.5391C127.315 24.4218 126.779 25.608 126.779 27.0977C126.779 28.5874 127.191 29.8379 128.016 30.7483C128.841 31.6586 130.046 32.4724 131.637 33.1897L133.745 34.0862C136.678 35.3414 138.786 36.6747 140.069 38.0954C141.352 39.5161 141.993 41.3414 141.993 43.5805C141.993 46.2103 140.976 48.3483 138.946 50.0081C136.916 51.6632 134.033 52.4954 130.308 52.4954V52.5Z" fill="white"/>
<path d="M144.147 52.5V52.0402L145.201 51.6264C145.719 51.4149 146.081 51.1299 146.278 50.7759C146.475 50.4218 146.576 49.9391 146.576 49.3276V25.3276C146.576 24.7161 146.494 24.2333 146.324 23.8793C146.154 23.5253 145.783 23.2448 145.201 23.0287L144.147 22.6149V22.1552H166.098L166.373 29.2356H165.915L163.944 24.9138C163.669 24.3621 163.381 23.9161 163.074 23.5805C162.767 23.2448 162.308 23.0747 161.699 23.0747H153.45V36.3621H158.354C158.963 36.3621 159.43 36.2011 159.751 35.8793C160.072 35.5575 160.356 35.1207 160.599 34.569L161.516 32.7299H161.974V41.0057H161.516L160.599 39.0747C160.324 38.523 160.035 38.0862 159.728 37.7644C159.421 37.4425 158.963 37.2816 158.354 37.2816H153.45V51.5805H162.707C163.317 51.5805 163.793 51.4195 164.128 51.0977C164.462 50.7759 164.737 50.3253 164.953 49.7414L166.831 45.4195H167.29L167.015 52.5H144.147Z" fill="white"/>
</svg>
