<svg width="50" height="51" viewBox="0 0 50 51" fill="none" xmlns="http://www.w3.org/2000/svg">
<rect y="0.922852" width="50" height="50" rx="25" fill="#1A1A1A"/>
<path d="M13.8887 25.2282C13.8887 20.3181 13.8887 17.862 15.4139 16.3367C16.9391 14.8115 19.3942 14.8115 24.3053 14.8115C29.2154 14.8115 31.6716 14.8115 33.1968 16.3367C34.722 17.862 34.722 20.317 34.722 25.2282C34.722 30.1383 34.722 32.5944 33.1968 34.1196C31.6716 35.6449 29.2165 35.6449 24.3053 35.6449C19.3953 35.6449 16.9391 35.6449 15.4139 34.1196C13.8887 32.5944 13.8887 30.1394 13.8887 25.2282Z" stroke="#FAFAFA" stroke-linecap="round" stroke-linejoin="round"/>
<path d="M30.3448 19.1982H30.3338M29.2395 25.2289C29.2395 26.5376 28.7197 27.7926 27.7943 28.718C26.869 29.6433 25.6139 30.1632 24.3053 30.1632C22.9967 30.1632 21.7416 29.6433 20.8163 28.718C19.8909 27.7926 19.3711 26.5376 19.3711 25.2289C19.3711 23.9203 19.8909 22.6653 20.8163 21.7399C21.7416 20.8146 22.9967 20.2947 24.3053 20.2947C25.6139 20.2947 26.869 20.8146 27.7943 21.7399C28.7197 22.6653 29.2395 23.9203 29.2395 25.2289Z" stroke="#FAFAFA" stroke-linecap="round" stroke-linejoin="round"/>
</svg>
