<svg width="50" height="51" viewBox="0 0 50 51" fill="none" xmlns="http://www.w3.org/2000/svg">
<rect y="0.922852" width="50" height="50" rx="25" fill="#1A1A1A"/>
<path d="M36.9767 19.9227C36.8417 19.3834 36.5668 18.8893 36.1797 18.4903C35.7926 18.0913 35.3071 17.8014 34.7722 17.6501C32.8178 17.1729 25 17.1729 25 17.1729C25 17.1729 17.1822 17.1729 15.2278 17.6956C14.6929 17.8469 14.2074 18.1367 13.8203 18.5357C13.4332 18.9348 13.1583 19.4289 13.0233 19.9682C12.6657 21.9516 12.4907 23.9638 12.5006 25.9792C12.4879 28.0098 12.6629 30.0373 13.0233 32.0357C13.1722 32.5582 13.4532 33.0336 13.8394 33.4157C14.2255 33.7979 14.7037 34.074 15.2278 34.2174C17.1822 34.7401 25 34.7401 25 34.7401C25 34.7401 32.8178 34.7401 34.7722 34.2174C35.3071 34.0661 35.7926 33.7763 36.1797 33.3772C36.5668 32.9782 36.8417 32.4841 36.9767 31.9448C37.3316 29.9763 37.5065 27.9795 37.4994 25.9792C37.5121 23.9486 37.3371 21.9211 36.9767 19.9227Z" stroke="#FAFAFA" stroke-linecap="round" stroke-linejoin="round"/>
<path d="M22.4434 29.6951L28.9771 25.9794L22.4434 22.2637V29.6951Z" stroke="#FAFAFA" stroke-linecap="round" stroke-linejoin="round"/>
</svg>
