<svg width="50" height="51" viewBox="0 0 50 51" fill="none" xmlns="http://www.w3.org/2000/svg">
<rect y="0.922852" width="50" height="50" rx="25" fill="#1A1A1A"/>
<path d="M17 19.923C17 18.8184 17.8955 17.9229 19.0002 17.923C22.6667 17.9232 26.3333 17.9232 29.9998 17.923C31.1045 17.9229 32 18.8184 32 19.923C32 23.5896 32 27.2562 32 30.9229C32 32.0274 31.1046 32.9228 30 32.9228C29.1282 32.9229 28.2564 32.9229 27.3846 32.9229V27.4537H28.2038C28.3905 27.4537 28.5695 27.3795 28.7015 27.2475C28.8335 27.1155 28.9077 26.9365 28.9077 26.7498V25.8614C28.9077 25.6747 28.8335 25.4957 28.7015 25.3637C28.5695 25.2317 28.3905 25.1575 28.2038 25.1575H27.4308V24.0729C27.4308 23.1037 27.8692 23.1037 28.3077 23.1037H28.8731C28.9659 23.1075 29.0585 23.0909 29.1442 23.055C29.23 23.0191 29.3068 22.9649 29.3692 22.896C29.4363 22.8322 29.4894 22.7551 29.5251 22.6697C29.5609 22.5843 29.5785 22.4924 29.5769 22.3999V21.546C29.58 21.4521 29.5645 21.3584 29.5314 21.2705C29.4983 21.1825 29.4481 21.1019 29.3838 21.0333C29.3195 20.9647 29.2423 20.9095 29.1567 20.8708C29.071 20.832 28.9786 20.8106 28.8846 20.8076H27.5577C27.1705 20.793 26.7848 20.8627 26.4272 21.0118C26.0695 21.1608 25.7485 21.3857 25.4863 21.671C25.2241 21.9562 25.027 22.295 24.9085 22.6639C24.79 23.0328 24.753 23.423 24.8 23.8075V25.1575H24.0615C23.9681 25.156 23.8754 25.1731 23.7886 25.2078C23.7019 25.2424 23.6229 25.294 23.5564 25.3596C23.4898 25.4251 23.4369 25.5032 23.4008 25.5893C23.3647 25.6755 23.3461 25.768 23.3461 25.8614V26.7498C23.3461 26.8432 23.3647 26.9357 23.4008 27.0219C23.4369 27.108 23.4898 27.1861 23.5564 27.2516C23.6229 27.3172 23.7019 27.3688 23.7886 27.4034C23.8754 27.4381 23.9681 27.4552 24.0615 27.4537H24.8V32.9229C22.8666 32.9229 20.9332 32.9229 18.9998 32.9228C17.8953 32.9228 17 32.0274 17 30.9229C17 27.2563 17 23.5896 17 19.923Z" stroke="#FAFAFA" stroke-linecap="round" stroke-linejoin="round"/>
</svg>
